<svg xmlns="http://www.w3.org/2000/svg" width="240" height="80"><path d="M70 0h10v10H70zM120 0h10v10h-10zM110 10h10v10h-10zM80 10h10v10H80zM70 20h60v10H70zM60 30h20v10H60zM90 30h20v10H90zM120 30h20v10h-20zM50 40h100v10H50zM50 50h10v10H50zM70 50h60v10H70zM140 50h10v10h-10zM50 60h10v10H50zM70 60h10v10H70zM120 60h10v10h-10zM140 60h10v10h-10zM70 70h20v10H70zM110 70h20v10h-20zM10 30h10v20H10zM20 20h10v10H20zM20 50h10v10H20zM30 10h10v10H30zM30 60h10v10H30zM160 50h10v20h-10zM170 30h10v20h-10zM180 10h10v20h-10zM220 30h10v20h-10zM210 20h10v10h-10zM210 50h10v10h-10zM200 60h10v10h-10zM200 10h10v10h-10z"/></svg>